<svg xmlns="http://www.w3.org/2000/svg"  viewBox="0 0 64 64" width="24px" height="24px"><path d="M 17 6 C 10.936593 6 6 10.936593 6 17 L 6 47 C 6 53.063407 10.936593 58 17 58 L 47 58 C 53.063407 58 58 53.063407 58 47 L 58 17 C 58 10.936593 53.063407 6 47 6 L 17 6 z M 17 8 L 47 8 C 51.982593 8 56 12.017407 56 17 L 56 47 C 56 51.982593 51.982593 56 47 56 L 17 56 C 12.017407 56 8 51.982593 8 47 L 8 17 C 8 12.017407 12.017407 8 17 8 z M 47 27 L 47 36 L 49 36 L 49 27 L 47 27 z M 11.958984 27.367188 L 11.958984 36 L 15.373047 36 C 15.881047 36 16.336188 35.938266 16.742188 35.822266 C 17.148188 35.706266 17.49625 35.542125 17.78125 35.328125 C 18.06725 35.115125 18.2855 34.857641 18.4375 34.556641 C 18.5905 34.256641 18.667969 33.924547 18.667969 33.560547 C 18.667969 33.044547 18.524234 32.61825 18.240234 32.28125 C 17.957234 31.94525 17.561828 31.705547 17.048828 31.560547 C 17.159828 31.484547 17.273578 31.389391 17.392578 31.275391 C 17.510578 31.161391 17.61875 31.027047 17.71875 30.873047 C 17.81875 30.719047 17.901797 30.54275 17.966797 30.34375 C 18.032797 30.14575 18.064453 29.922734 18.064453 29.677734 C 18.064453 29.331734 17.993562 29.015422 17.851562 28.732422 C 17.710563 28.448422 17.502422 28.204953 17.232422 28.001953 C 16.962422 27.798953 16.634094 27.64125 16.246094 27.53125 C 15.860094 27.42125 15.418828 27.367188 14.923828 27.367188 L 11.958984 27.367188 z M 26.347656 27.367188 L 26.347656 36 L 28.244141 36 L 28.244141 32.736328 L 29.716797 32.736328 L 31.304688 36 L 33.296875 36 L 31.488281 32.318359 C 31.666281 32.191359 31.836094 32.047719 31.996094 31.886719 C 32.157094 31.725719 32.298922 31.549422 32.419922 31.357422 C 32.539922 31.165422 32.636031 30.958281 32.707031 30.738281 C 32.779031 30.518281 32.814453 30.285062 32.814453 30.039062 C 32.814453 29.632062 32.741703 29.265547 32.595703 28.935547 C 32.448703 28.605547 32.234172 28.323797 31.951172 28.091797 C 31.668172 27.859797 31.317391 27.679688 30.900391 27.554688 C 30.483391 27.429688 30.002078 27.367188 29.455078 27.367188 L 26.347656 27.367188 z M 28.244141 28.751953 L 29.40625 28.751953 C 29.90225 28.751953 30.269719 28.853687 30.511719 29.054688 C 30.751719 29.255687 30.871094 29.582062 30.871094 30.039062 C 30.871094 30.209063 30.857078 30.360234 30.830078 30.490234 C 30.803078 30.620234 30.765797 30.740703 30.716797 30.845703 C 30.667797 30.950703 30.614687 31.046906 30.554688 31.128906 C 30.494688 31.211906 30.433141 31.286516 30.369141 31.353516 L 28.244141 31.353516 L 28.244141 28.751953 z M 13.855469 28.826172 L 14.820312 28.826172 C 15.256312 28.826172 15.590312 28.913891 15.820312 29.087891 C 16.051313 29.260891 16.166016 29.516469 16.166016 29.855469 C 16.166016 30.097469 16.130594 30.310094 16.058594 30.496094 C 15.987594 30.682094 15.909219 30.835125 15.824219 30.953125 L 13.855469 30.953125 L 13.855469 28.826172 z M 43.216797 29.525391 C 42.050797 29.578391 40.944875 30.362813 40.671875 31.757812 L 42.310547 31.753906 C 42.310547 31.753906 42.442266 31.044375 43.197266 30.984375 C 43.931266 30.925375 44.305172 31.393016 44.201172 32.166016 C 42.867172 32.110016 41.140062 32.159172 40.414062 33.451172 C 39.299063 35.972172 42.804047 36.820687 44.373047 35.304688 L 44.392578 35.996094 L 46 36 L 46 31.929688 C 46 30.226687 44.491797 29.468391 43.216797 29.525391 z M 22.734375 29.595703 C 22.280625 29.554906 21.808062 29.616203 21.351562 29.783203 C 19.525563 30.451203 18.913391 32.647906 19.525391 34.253906 C 20.312391 36.309906 23.254375 36.551 24.984375 35.625 L 24.603516 34.496094 C 23.368516 34.887094 21.310031 35.025281 21.207031 33.238281 L 25.277344 33.238281 L 25.277344 32.613281 C 25.277344 30.758531 24.095625 29.718094 22.734375 29.595703 z M 37.150391 29.595703 C 36.696641 29.554906 36.224078 29.616203 35.767578 29.783203 C 33.941578 30.451203 33.329406 32.647906 33.941406 34.253906 C 34.728406 36.309906 37.670391 36.551 39.400391 35.625 L 39.019531 34.496094 C 37.784531 34.887094 35.726047 35.025281 35.623047 33.238281 L 39.693359 33.238281 L 39.693359 32.613281 C 39.693359 30.758531 38.511641 29.718094 37.150391 29.595703 z M 22.451172 30.832031 C 23.146172 30.803031 23.56725 31.403984 23.53125 32.083984 L 21.240234 32.083984 C 21.240234 31.456984 21.710172 30.787031 22.451172 30.832031 z M 36.867188 30.832031 C 37.562187 30.803031 37.983266 31.403984 37.947266 32.083984 L 35.65625 32.083984 C 35.65625 31.456984 36.126188 30.787031 36.867188 30.832031 z M 13.855469 32.261719 L 15.410156 32.261719 C 15.871156 32.261719 16.220031 32.361547 16.457031 32.560547 C 16.694031 32.759547 16.8125 33.050547 16.8125 33.435547 C 16.8125 33.625547 16.775219 33.791641 16.699219 33.931641 C 16.623219 34.071641 16.516906 34.184437 16.378906 34.273438 C 16.240906 34.362438 16.075859 34.429609 15.880859 34.474609 C 15.686859 34.518609 15.470375 34.539062 15.234375 34.539062 L 13.855469 34.539062 L 13.855469 32.261719 z M 43.519531 33.347656 C 43.849656 33.354156 44.185969 33.388016 44.355469 33.416016 L 44.355469 34.439453 C 43.990469 34.648453 43.370875 34.846641 42.921875 34.806641 C 42.003875 34.725641 41.952703 33.734359 42.720703 33.443359 C 42.865703 33.362359 43.189406 33.341156 43.519531 33.347656 z M 50 34.349609 L 50 36 L 51.650391 36 L 51.650391 34.349609 L 50 34.349609 z M 17 48 C 16.448 48 16 48.448 16 49 L 16 51 C 16 51.552 16.448 52 17 52 C 17.552 52 18 51.552 18 51 L 18 49 C 18 48.448 17.552 48 17 48 z M 22 48 C 21.448 48 21 48.448 21 49 L 21 51 C 21 51.552 21.448 52 22 52 C 22.552 52 23 51.552 23 51 L 23 49 C 23 48.448 22.552 48 22 48 z M 27 48 C 26.448 48 26 48.448 26 49 L 26 51 C 26 51.552 26.448 52 27 52 C 27.552 52 28 51.552 28 51 L 28 49 C 28 48.448 27.552 48 27 48 z M 32 48 C 31.448 48 31 48.448 31 49 L 31 51 C 31 51.552 31.448 52 32 52 C 32.552 52 33 51.552 33 51 L 33 49 C 33 48.448 32.552 48 32 48 z M 37 48 C 36.448 48 36 48.448 36 49 L 36 51 C 36 51.552 36.448 52 37 52 C 37.552 52 38 51.552 38 51 L 38 49 C 38 48.448 37.552 48 37 48 z M 42 48 C 41.448 48 41 48.448 41 49 L 41 51 C 41 51.552 41.448 52 42 52 C 42.552 52 43 51.552 43 51 L 43 49 C 43 48.448 42.552 48 42 48 z M 47 48 C 46.448 48 46 48.448 46 49 L 46 51 C 46 51.552 46.448 52 47 52 C 47.552 52 48 51.552 48 51 L 48 49 C 48 48.448 47.552 48 47 48 z"
fill="#FFFFFF"/></svg>